<svg width="31" height="25" viewBox="0 0 31 25" fill="none" xmlns="http://www.w3.org/2000/svg">
<g opacity="0.2">
<path d="M0.871 5.86L1.663 1.57H9.583L5.425 25H0.673L4.039 5.86H0.871ZM15.9093 14.1782C15.1041 14.1782 14.3715 14.0462 13.7115 13.7822C13.0647 13.505 12.5499 13.1288 12.1671 12.6536C11.7975 12.1652 11.6127 11.6108 11.6127 10.9904C11.6127 10.898 11.6259 10.7462 11.6523 10.535H14.3451C14.3055 10.997 14.4441 11.3732 14.7609 11.6636C15.0777 11.9408 15.5265 12.0794 16.1073 12.0794C16.6353 12.0794 17.0709 11.987 17.4141 11.8022C17.7705 11.6042 17.9487 11.3204 17.9487 10.9508C17.9487 10.6208 17.7837 10.3568 17.4537 10.1588C17.1369 9.9608 16.6287 9.7364 15.9291 9.4856C15.2295 9.2348 14.6487 8.9906 14.1867 8.753C13.7247 8.5154 13.3287 8.1854 12.9987 7.763C12.6687 7.3406 12.5037 6.806 12.5037 6.1592C12.5037 5.5124 12.6885 4.9382 13.0581 4.4366C13.4409 3.935 13.9689 3.5456 14.6421 3.2684C15.3153 2.9912 16.0875 2.8526 16.9587 2.8526C17.7903 2.8526 18.5229 2.9912 19.1565 3.2684C19.7901 3.5456 20.2785 3.935 20.6217 4.4366C20.9781 4.925 21.1563 5.486 21.1563 6.1196C21.1563 6.278 21.1497 6.3968 21.1365 6.476H18.5625C18.6021 6.014 18.4701 5.6444 18.1665 5.3672C17.8629 5.09 17.4207 4.9514 16.8399 4.9514C16.3647 4.9514 15.9753 5.057 15.6717 5.2682C15.3681 5.4662 15.2163 5.7368 15.2163 6.08C15.2163 6.4232 15.3879 6.707 15.7311 6.9314C16.0743 7.1426 16.6023 7.3802 17.3151 7.6442C18.0279 7.9214 18.5955 8.1788 19.0179 8.4164C19.4535 8.6408 19.8297 8.9576 20.1465 9.3668C20.4633 9.7628 20.6217 10.2644 20.6217 10.8716C20.6217 11.5448 20.4171 12.1322 20.0079 12.6338C19.5987 13.1354 19.0377 13.5182 18.3249 13.7822C17.6121 14.0462 16.8069 14.1782 15.9093 14.1782ZM27.0353 10.6142C27.0221 10.6934 27.0155 10.799 27.0155 10.931C27.0155 11.195 27.0881 11.3864 27.2333 11.5052C27.3917 11.6108 27.6491 11.6636 28.0055 11.6636H29.3123L28.8965 14H27.1343C25.1543 14 24.1643 13.175 24.1643 11.525C24.1643 11.2082 24.1907 10.898 24.2435 10.5944L25.1741 5.3078H23.8673L24.2633 3.0308H25.5899L26.0651 0.318198H28.8569L28.3817 3.0308H30.8171L30.4211 5.3078H27.9659L27.0353 10.6142Z" fill="#0B254D"/>
</g>
</svg>
