<svg width="45" height="26" viewBox="0 0 45 26" fill="none" xmlns="http://www.w3.org/2000/svg">
<g opacity="0.2">
<path d="M3.64 20.654C6.082 18.872 7.996 17.42 9.382 16.298C10.79 15.154 12 13.977 13.012 12.767C14.046 11.557 14.662 10.38 14.86 9.236C14.926 8.906 14.959 8.587 14.959 8.279C14.959 7.487 14.728 6.871 14.266 6.431C13.826 5.991 13.144 5.771 12.22 5.771C11.142 5.771 10.251 6.134 9.547 6.86C8.843 7.564 8.348 8.576 8.062 9.896H3.607C4.135 7.256 5.268 5.254 7.006 3.89C8.744 2.526 10.757 1.844 13.045 1.844C15.223 1.844 16.873 2.361 17.995 3.395C19.117 4.407 19.678 5.76 19.678 7.454C19.678 8.004 19.634 8.499 19.546 8.939C19.26 10.589 18.523 12.173 17.335 13.691C16.147 15.209 14.86 16.551 13.474 17.717C12.088 18.861 10.295 20.236 8.095 21.842H17.83L17.137 25.67H0.868L1.462 22.238L3.64 20.654ZM29.6446 3.8724C30.7798 3.8724 31.6708 4.1826 32.3176 4.803C32.9776 5.4102 33.3076 6.2814 33.3076 7.4166C33.3076 7.839 33.2746 8.2218 33.2086 8.565L32.0602 15H29.308L30.3772 8.9412C30.4168 8.7036 30.4366 8.4726 30.4366 8.2482C30.4366 7.5882 30.2584 7.0866 29.902 6.7434C29.5588 6.4002 29.0638 6.2286 28.417 6.2286C27.6778 6.2286 27.0442 6.453 26.5162 6.9018C26.0014 7.3374 25.6582 7.971 25.4866 8.8026L24.3976 15H21.6058L23.5462 4.0308H26.338L26.1004 5.3772C26.5492 4.9152 27.0838 4.5522 27.7042 4.2882C28.3246 4.011 28.9714 3.8724 29.6446 3.8724ZM35.7654 9.4758C35.9634 8.367 36.3528 7.3836 36.9336 6.5256C37.5276 5.6676 38.247 5.0076 39.0919 4.5456C39.9498 4.0836 40.8474 3.8526 41.7847 3.8526C42.4975 3.8526 43.1509 4.011 43.7449 4.3278C44.3389 4.6314 44.7811 5.0406 45.0715 5.5554L46.0021 0.347999H48.7939L46.2001 15H43.4083L43.7053 13.3764C43.2697 13.9176 42.7087 14.3532 42.0222 14.6832C41.349 15.0132 40.6032 15.1782 39.7848 15.1782C38.9796 15.1782 38.2602 15 37.6266 14.6436C37.0062 14.274 36.5178 13.7592 36.1614 13.0992C35.8182 12.426 35.6466 11.6472 35.6466 10.7628C35.6466 10.3536 35.6862 9.9246 35.7654 9.4758ZM44.3785 9.5154C44.4313 9.1722 44.4577 8.9214 44.4577 8.763C44.4577 7.9842 44.2267 7.377 43.7647 6.9414C43.3159 6.5058 42.7483 6.288 42.0619 6.288C41.547 6.288 41.0454 6.4134 40.557 6.6642C40.0819 6.915 39.6661 7.2846 39.3096 7.773C38.9532 8.2482 38.7156 8.8158 38.5968 9.4758C38.5572 9.7266 38.5374 9.9642 38.5374 10.1886C38.5374 10.9806 38.7618 11.6076 39.2106 12.0696C39.6594 12.5184 40.227 12.7428 40.9134 12.7428C41.4283 12.7428 41.9299 12.6174 42.4183 12.3666C42.9067 12.1026 43.3225 11.7264 43.6657 11.238C44.0221 10.7496 44.2597 10.1754 44.3785 9.5154Z" fill="#0B254D"/>
</g>
</svg>
