<svg width="43" height="27" viewBox="0 0 43 27" fill="none" xmlns="http://www.w3.org/2000/svg">
<g opacity="0.2">
<path d="M2.234 8.279C2.74 6.079 3.818 4.385 5.468 3.197C7.14 1.987 9.153 1.382 11.507 1.382C13.619 1.382 15.236 1.855 16.358 2.801C17.48 3.747 18.041 4.99 18.041 6.53C18.041 6.904 18.008 7.311 17.942 7.751C17.722 9.137 17.161 10.314 16.259 11.282C15.379 12.228 14.411 12.866 13.355 13.196V13.328C14.345 13.658 15.115 14.208 15.665 14.978C16.215 15.726 16.49 16.683 16.49 17.849C16.49 18.377 16.446 18.872 16.358 19.334C16.116 20.654 15.599 21.831 14.807 22.865C14.015 23.899 12.981 24.713 11.705 25.307C10.429 25.879 8.966 26.165 7.316 26.165C5.072 26.165 3.29 25.659 1.97 24.647C0.65 23.613 -0.00999996 22.084 -0.00999996 20.06C-0.00999996 19.642 0.023 19.202 0.089 18.74H4.577C4.555 18.872 4.544 19.07 4.544 19.334C4.544 20.236 4.83 20.962 5.402 21.512C5.974 22.04 6.799 22.304 7.877 22.304C9.153 22.304 10.165 21.897 10.913 21.083C11.683 20.269 12.068 19.268 12.068 18.08C12.068 17.068 11.694 16.342 10.946 15.902C10.198 15.462 9.043 15.242 7.481 15.242H6.524L7.217 11.447H8.174C11.276 11.447 13.014 10.402 13.388 8.312C13.432 7.96 13.454 7.729 13.454 7.619C13.454 6.871 13.212 6.299 12.728 5.903C12.266 5.507 11.584 5.309 10.682 5.309C9.626 5.309 8.768 5.595 8.108 6.167C7.448 6.739 6.997 7.443 6.755 8.279H2.234ZM24.8071 5.9712C25.2823 5.3112 25.8367 4.7964 26.4703 4.4268C27.1039 4.0572 27.7903 3.8724 28.5295 3.8724L28.0147 6.783H27.2821C26.4637 6.783 25.8037 6.9612 25.3021 7.3176C24.8137 7.674 24.4573 8.2812 24.2329 9.1392L23.2033 15H20.4115L22.3519 4.0308H25.1437L24.8071 5.9712ZM29.4858 9.4758C29.6838 8.367 30.0732 7.3836 30.654 6.5256C31.248 5.6676 31.9674 5.0076 32.8122 4.5456C33.6702 4.0836 34.5678 3.8526 35.505 3.8526C36.2178 3.8526 36.8712 4.011 37.4652 4.3278C38.0592 4.6314 38.5014 5.0406 38.7918 5.5554L39.7224 0.347999H42.5142L39.9204 15H37.1286L37.4256 13.3764C36.99 13.9176 36.429 14.3532 35.7426 14.6832C35.0694 15.0132 34.3236 15.1782 33.5052 15.1782C32.7 15.1782 31.9806 15 31.347 14.6436C30.7266 14.274 30.2382 13.7592 29.8818 13.0992C29.5386 12.426 29.367 11.6472 29.367 10.7628C29.367 10.3536 29.4066 9.9246 29.4858 9.4758ZM38.0988 9.5154C38.1516 9.1722 38.178 8.9214 38.178 8.763C38.178 7.9842 37.947 7.377 37.485 6.9414C37.0362 6.5058 36.4686 6.288 35.7822 6.288C35.2674 6.288 34.7658 6.4134 34.2774 6.6642C33.8022 6.915 33.3864 7.2846 33.03 7.773C32.6736 8.2482 32.436 8.8158 32.3172 9.4758C32.2776 9.7266 32.2578 9.9642 32.2578 10.1886C32.2578 10.9806 32.4822 11.6076 32.931 12.0696C33.3798 12.5184 33.9474 12.7428 34.6338 12.7428C35.1486 12.7428 35.6502 12.6174 36.1386 12.3666C36.627 12.1026 37.0428 11.7264 37.386 11.238C37.7424 10.7496 37.98 10.1754 38.0988 9.5154Z" fill="#0B254D"/>
</g>
</svg>
